<svg xmlns="http://www.w3.org/2000/svg" viewBox="0 0 400 550" width="100%" style="background-color: transparent;">
  <defs>
    <marker id="arrowhead" viewBox="0 0 10 10" refX="8" refY="5" markerWidth="6" markerHeight="6" orient="auto">
      <path d="M 0 0 L 10 5 L 0 10 z" fill="#475569" />
    </marker>
  </defs>
  
  <rect x="110" y="115" width="180" height="400" rx="30" ry="30" stroke="#64748b" stroke-width="2" fill="none" />

  <text x="200" y="195" text-anchor="middle" fill="#0f172a" font-size="20" font-family="serif">
    <tspan font-style="italic">α = </tspan><tspan font-style="italic" font-weight="bold">q</tspan><tspan font-weight="bold"> · </tspan><tspan font-style="italic" font-weight="bold">k</tspan>
  </text>

  <rect x="120" y="225" width="160" height="205" stroke="#94a3b8" stroke-width="1.5" fill="none" />

  <rect x="135" y="335" width="50" height="60" fill="#f1f5f9" stroke="#94a3b8" stroke-width="1"/>
  <text x="160" y="370" text-anchor="middle" fill="#0f172a" font-size="18" font-family="serif" font-style="italic">W<tspan dy="-8" font-size="14">q</tspan></text>
  
  <rect x="215" y="335" width="50" height="60" fill="#f1f5f9" stroke="#94a3b8" stroke-width="1"/>
  <text x="240" y="370" text-anchor="middle" fill="#0f172a" font-size="18" font-family="serif" font-style="italic">W<tspan dy="-8" font-size="14">k</tspan></text>

  <rect x="150" y="255" width="20" height="50" rx="4" fill="#e2e8f0" stroke="#94a3b8" stroke-width="1"/>
  <text x="160" y="285" text-anchor="middle" fill="#0f172a" font-size="18" font-family="serif" font-style="italic" font-weight="bold">q</text>

  <rect x="230" y="255" width="20" height="50" rx="4" fill="#e2e8f0" stroke="#94a3b8" stroke-width="1"/>
  <text x="240" y="285" text-anchor="middle" fill="#0f172a" font-size="18" font-family="serif" font-style="italic" font-weight="bold">k</text>

  <rect x="145" y="455" width="30" height="45" fill="#f8fafc" stroke="#94a3b8" stroke-width="1"/>
  <rect x="225" y="455" width="30" height="45" fill="#f8fafc" stroke="#94a3b8" stroke-width="1"/>

  <circle cx="200" cy="280" r="3.5" fill="#475569" />

  <line x1="160" y1="450" x2="160" y2="403" stroke="#475569" stroke-width="1.5" marker-end="url(#arrowhead)" />
  <line x1="240" y1="450" x2="240" y2="403" stroke="#475569" stroke-width="1.5" marker-end="url(#arrowhead)" />
  
  <line x1="160" y1="330" x2="160" y2="313" stroke="#475569" stroke-width="1.5" marker-end="url(#arrowhead)" />
  <line x1="240" y1="330" x2="240" y2="313" stroke="#475569" stroke-width="1.5" marker-end="url(#arrowhead)" />
  
  <line x1="175" y1="280" x2="190" y2="280" stroke="#475569" stroke-width="1.5" marker-end="url(#arrowhead)" />
  <line x1="225" y1="280" x2="210" y2="280" stroke="#475569" stroke-width="1.5" marker-end="url(#arrowhead)" />
  
  <line x1="200" y1="270" x2="200" y2="205" stroke="#475569" stroke-width="1.5" marker-end="url(#arrowhead)" />
</svg>
